HIERARCHY
ROOT mug2
{
	OFFSET 0.000000 0.000000 0.000000
	CHANNELS 6 Xposition Yposition Zposition Yrotation Xrotation Zrotation
	End Site
	{
		OFFSET 0.000000 0.000000 0.000000
	}
}
MOTION
Frames: 157
Frame Time: 0.008333334
1.109023 3.413544 3.516619 -112.589600 2.160821 3.738835 
1.112309 3.412252 3.513582 -111.937900 1.947795 3.935126 
1.118402 3.412254 3.509295 -111.203800 1.926397 3.855145 
1.125188 3.412889 3.506503 -110.352800 1.991195 3.866992 
1.131189 3.410956 3.503289 -109.449100 1.812275 3.798271 
1.138757 3.411261 3.501344 -108.435800 1.793558 3.812889 
1.145347 3.411155 3.498211 -107.364100 1.804479 3.818789 
1.152830 3.410669 3.496083 -106.174800 1.711205 3.750547 
1.159978 3.410686 3.494207 -105.069800 1.661845 3.761978 
1.167209 3.410091 3.492413 -103.847000 1.611148 3.781789 
1.174650 3.409919 3.491495 -102.499400 1.612175 3.722589 
1.182625 3.409439 3.490024 -100.998700 1.485996 3.703582 
1.190765 3.409477 3.488888 -99.402770 1.478065 3.604313 
1.199957 3.408825 3.489435 -97.774510 1.391037 3.445123 
1.208352 3.409997 3.489440 -95.940550 1.430102 3.469876 
1.215708 3.408654 3.492056 -93.945070 1.261484 3.252723 
1.223955 3.408571 3.495600 -91.810300 1.152858 3.349635 
1.231485 3.408172 3.500490 -89.772670 0.972645 3.250908 
1.240031 3.408135 3.505876 -87.719820 0.912224 3.180423 
1.249101 3.408357 3.512451 -85.726260 0.851621 3.149546 
1.259210 3.407900 3.518935 -83.975650 0.706293 3.134101 
1.270958 3.408193 3.523661 -82.440490 0.780021 3.026525 
1.283438 3.408658 3.527153 -81.210720 0.726532 3.079788 
1.296251 3.408197 3.528059 -80.405610 0.722613 3.055834 
1.310624 3.408189 3.526730 -79.855530 0.757780 3.117391 
1.323860 3.407367 3.523824 -79.703920 0.647187 2.994700 
1.337752 3.406946 3.519253 -79.586670 0.690847 3.045240 
1.351867 3.407058 3.514863 -79.471310 0.773788 3.079257 
1.364001 3.405149 3.510857 -79.382540 0.589446 2.919450 
1.376201 3.405088 3.506933 -79.127200 0.576998 2.926520 
1.386421 3.404395 3.504259 -78.822540 0.530852 2.907718 
1.397735 3.405361 3.501203 -78.367860 0.628825 3.108584 
1.407099 3.404875 3.499047 -78.031920 0.659128 2.924235 
1.414739 3.403625 3.497162 -77.848690 0.554306 2.989318 
1.422680 3.403139 3.495197 -77.634670 0.479027 2.898389 
1.430513 3.402981 3.492633 -77.568020 0.548574 2.802007 
1.436913 3.402503 3.490014 -77.525820 0.504494 2.890304 
1.443352 3.402349 3.488430 -77.537350 0.470619 2.861970 
1.448281 3.402611 3.487576 -77.646360 0.540819 2.897453 
1.453209 3.402873 3.486723 -77.755310 0.611086 2.932803 
1.458138 3.403136 3.485869 -77.864200 0.681421 2.968019 
1.459240 3.403038 3.485344 -77.983800 0.670711 2.974256 
1.460343 3.402940 3.484819 -78.103360 0.660015 2.980514 
1.461446 3.402842 3.484294 -78.222960 0.649331 2.986795 
1.462549 3.402745 3.483769 -78.342530 0.638660 2.993098 
1.463651 3.402647 3.483244 -78.462100 0.628002 2.999424 
1.464754 3.402549 3.482719 -78.581730 0.617357 3.005771 
1.465857 3.402451 3.482194 -78.701290 0.606726 3.012141 
1.466960 3.402353 3.481669 -78.820860 0.596108 3.018533 
1.468062 3.402256 3.481144 -78.940460 0.585504 3.024947 
1.467972 3.402097 3.481204 -78.955440 0.603966 2.991249 
1.467687 3.402272 3.481499 -78.940310 0.597298 3.057143 
1.467455 3.402160 3.481984 -78.961430 0.610117 3.010008 
1.467363 3.402277 3.482159 -78.974760 0.615279 2.991997 
1.467509 3.402270 3.482400 -78.977910 0.614826 3.010561 
1.467649 3.402355 3.482622 -78.971680 0.631546 3.003676 
1.467857 3.402635 3.482594 -78.945980 0.629987 3.045554 
1.467636 3.402527 3.482688 -78.955200 0.605677 3.051532 
1.467614 3.402239 3.482748 -78.954650 0.627816 3.026810 
1.467589 3.402272 3.482614 -78.949830 0.628328 3.019781 
1.467838 3.402445 3.482234 -78.954130 0.632253 3.042044 
1.467798 3.402263 3.481838 -78.944460 0.652432 2.991270 
1.467755 3.402412 3.481645 -78.961610 0.619037 3.055994 
1.467850 3.402423 3.481345 -78.945070 0.630187 3.043490 
1.467767 3.402662 3.481014 -78.969540 0.611028 3.108931 
1.467535 3.402632 3.480209 -79.022160 0.604705 3.100440 
1.467570 3.402210 3.477906 -79.214570 0.625360 3.036952 
1.468580 3.402182 3.473996 -79.454990 0.656850 3.051056 
1.469380 3.402083 3.470393 -79.664640 0.663686 3.097231 
1.471368 3.402182 3.465898 -79.797730 0.649773 3.105317 
1.471765 3.401554 3.463679 -80.008850 0.666716 3.084335 
1.472819 3.401499 3.461793 -80.107450 0.692504 3.108443 
1.473068 3.401198 3.461639 -80.161990 0.689742 3.027165 
1.473637 3.401446 3.461412 -80.172730 0.744321 2.917379 
1.473043 3.401143 3.462008 -80.179380 0.692802 3.038383 
1.472872 3.401113 3.462437 -80.173980 0.666708 3.023521 
1.472960 3.401058 3.462831 -80.172820 0.699609 3.007099 
1.473364 3.401407 3.463077 -80.149810 0.752896 2.930953 
1.473126 3.401000 3.464054 -80.172360 0.720991 2.962242 
1.473246 3.401342 3.464207 -80.176240 0.715904 2.932858 
1.473057 3.401265 3.464677 -80.190060 0.703969 2.923409 
1.472966 3.401354 3.464891 -80.195800 0.720099 2.952119 
1.472955 3.401495 3.464841 -80.198000 0.705586 2.924167 
1.473119 3.401419 3.464716 -80.213380 0.712551 2.916870 
1.473187 3.401434 3.464523 -80.185060 0.717154 2.881202 
1.473272 3.401056 3.464521 -80.182280 0.690105 2.934917 
1.473457 3.401171 3.464055 -80.162780 0.735357 2.929981 
1.473370 3.401201 3.464289 -80.171570 0.700814 2.901578 
1.473340 3.401140 3.464312 -80.190250 0.696128 2.918880 
1.473198 3.401268 3.464485 -80.175350 0.728559 2.911612 
1.473070 3.401392 3.464582 -80.174350 0.707489 2.924583 
1.472705 3.401758 3.465016 -80.205200 0.734839 2.955771 
1.472715 3.401689 3.465506 -80.200930 0.736709 2.956972 
1.472391 3.401906 3.466001 -80.159060 0.716065 3.003917 
1.472189 3.401972 3.466055 -80.092830 0.697033 3.030957 
1.471962 3.401767 3.465875 -80.025420 0.684707 3.055663 
1.471084 3.401663 3.465547 -79.935270 0.690608 2.950943 
1.470967 3.401852 3.464442 -79.845860 0.725720 2.891947 
1.470736 3.401691 3.463104 -79.815220 0.684408 2.904220 
1.471003 3.401343 3.459562 -79.947600 0.613645 3.032001 
1.471382 3.401313 3.452659 -80.121280 0.680592 3.050615 
1.472554 3.401065 3.444001 -80.063600 0.673531 3.037945 
1.474542 3.400650 3.434322 -79.745610 0.667887 3.054286 
1.476015 3.400379 3.423629 -79.203550 0.679431 3.008458 
1.477122 3.399773 3.413205 -78.617680 0.657221 2.851828 
1.478456 3.399878 3.402855 -77.852840 0.655570 3.002708 
1.479648 3.399360 3.393593 -77.118160 0.583658 3.030145 
1.481449 3.398632 3.384368 -76.341190 0.543726 2.966411 
1.484424 3.398728 3.375922 -75.580630 0.503752 3.008864 
1.488514 3.398244 3.368016 -74.939150 0.476966 2.978713 
1.493984 3.397736 3.360699 -74.422730 0.474890 2.891536 
1.500294 3.397136 3.353756 -73.929630 0.440985 2.956965 
1.507223 3.396438 3.346445 -73.398380 0.381726 2.888853 
1.513963 3.396251 3.339141 -72.734440 0.349160 3.001089 
1.520581 3.395973 3.329917 -71.931950 0.397917 2.846204 
1.526905 3.395306 3.320064 -70.882690 0.356638 2.818845 
1.531678 3.394958 3.309081 -69.664490 0.240047 2.874184 
1.536495 3.394381 3.298295 -68.388370 0.209410 2.778356 
1.540705 3.393953 3.288812 -66.978300 0.169058 2.765191 
1.545733 3.393419 3.278815 -65.555850 0.142235 2.674007 
1.549960 3.393010 3.269809 -64.145260 0.097925 2.663381 
1.555108 3.392385 3.261746 -62.732060 0.051801 2.592339 
1.560117 3.391893 3.254282 -61.402680 0.048067 2.569878 
1.564145 3.391467 3.247386 -60.147950 -0.060486 2.425349 
1.568246 3.391288 3.240326 -58.752930 -0.016724 2.443142 
1.571842 3.391299 3.233446 -57.415310 -0.005189 2.414265 
1.574921 3.390659 3.226417 -56.198430 -0.046753 2.386581 
1.578730 3.390009 3.220576 -55.068480 -0.102295 2.388863 
1.582875 3.389817 3.214503 -54.061490 -0.150482 2.287169 
1.587635 3.389305 3.208318 -53.126190 -0.176025 2.296207 
1.592891 3.389398 3.202492 -52.380310 -0.165009 2.301874 
1.597197 3.389251 3.196077 -51.779750 -0.215302 2.145549 
1.602334 3.388791 3.189434 -51.214840 -0.226563 2.237315 
1.605756 3.388855 3.183435 -50.767640 -0.219147 2.195305 
1.609974 3.388747 3.177346 -50.251860 -0.160950 2.149129 
1.612638 3.388621 3.172352 -49.822390 -0.220642 2.198222 
1.615068 3.388070 3.168481 -49.364440 -0.225861 2.164105 
1.616852 3.388178 3.164587 -49.017670 -0.213898 2.151843 
1.618636 3.387746 3.161620 -48.637940 -0.225617 2.142825 
1.620471 3.387842 3.158838 -48.294250 -0.264862 2.188999 
1.622312 3.387327 3.157236 -48.006320 -0.212799 2.051042 
1.623311 3.386817 3.155432 -47.802460 -0.200104 1.934141 
1.624803 3.387053 3.154348 -47.589450 -0.184723 1.984134 
1.626073 3.387212 3.153283 -47.389530 -0.202148 1.998679 
1.626538 3.387193 3.152600 -47.297420 -0.185028 1.953631 
1.626956 3.386962 3.152290 -47.222630 -0.200165 1.972549 
1.626941 3.387065 3.151903 -47.235320 -0.161987 1.900122 
1.627060 3.387068 3.151516 -47.211300 -0.153778 1.931611 
1.626867 3.387491 3.151294 -47.212280 -0.132233 2.030120 
1.626988 3.387610 3.150964 -47.215820 -0.178223 2.004288 
1.626837 3.387059 3.150794 -47.226260 -0.117767 1.953893 
1.626790 3.387034 3.150693 -47.228970 -0.115875 1.935248 
1.626757 3.386903 3.150844 -47.252410 -0.156586 1.978580 
1.626722 3.387115 3.150641 -47.259030 -0.140991 1.923736 
1.626656 3.387476 3.150824 -47.237060 -0.203583 2.046848 
1.626613 3.387380 3.150868 -47.231350 -0.197907 2.005146 
1.626425 3.387110 3.150546 -47.220980 -0.179596 1.976090 
